<svg width="100" height="100" viewBox="0 0 100 100" fill="none" xmlns="http://www.w3.org/2000/svg">
<path fill-rule="evenodd" clip-rule="evenodd" d="M17.7084 50C17.7084 48.2742 19.1076 46.875 20.8334 46.875H79.1667C80.8926 46.875 82.2917 48.2742 82.2917 50C82.2917 51.7258 80.8926 53.125 79.1667 53.125H20.8334C19.1076 53.125 17.7084 51.7258 17.7084 50Z" fill="black"/>
<path fill-rule="evenodd" clip-rule="evenodd" d="M17.7084 29.1667C17.7084 27.4408 19.1076 26.0417 20.8334 26.0417H79.1667C80.8926 26.0417 82.2917 27.4408 82.2917 29.1667C82.2917 30.8925 80.8926 32.2917 79.1667 32.2917H20.8334C19.1076 32.2917 17.7084 30.8925 17.7084 29.1667Z" fill="black"/>
<path fill-rule="evenodd" clip-rule="evenodd" d="M17.7084 70.8333C17.7084 69.1075 19.1076 67.7083 20.8334 67.7083H79.1667C80.8926 67.7083 82.2917 69.1075 82.2917 70.8333C82.2917 72.5592 80.8926 73.9583 79.1667 73.9583H20.8334C19.1076 73.9583 17.7084 72.5592 17.7084 70.8333Z" fill="black"/>
</svg>
